<svg width="60" height="60" viewBox="0 0 60 60" fill="none" xmlns="http://www.w3.org/2000/svg">
<path d="M16.8247 47.8378H10.1355C9.92048 47.8378 9.71424 47.7524 9.56219 47.6003C9.41013 47.4483 9.32471 47.242 9.32471 47.027V29.7632C9.32471 29.5482 9.41013 29.3419 9.56219 29.1899C9.71424 29.0378 9.92048 28.9524 10.1355 28.9524H16.8247C17.0398 28.9524 17.246 29.0378 17.398 29.1899C17.5501 29.3419 17.6355 29.5482 17.6355 29.7632V47.027C17.6355 47.242 17.5501 47.4483 17.398 47.6003C17.246 47.7524 17.0398 47.8378 16.8247 47.8378ZM10.9463 46.2162H16.0139V30.574H10.9463V46.2162Z" fill="#FC5E16" stroke="#FC5E16"/>
<path d="M18.7503 30.5739H8.20974C7.9947 30.5739 7.78846 30.4885 7.63641 30.3364C7.48435 30.1844 7.39893 29.9781 7.39893 29.7631V24.8982C7.39893 24.6832 7.48435 24.4769 7.63641 24.3249C7.78846 24.1728 7.9947 24.0874 8.20974 24.0874H18.7503C18.9653 24.0874 19.1716 24.1728 19.3236 24.3249C19.4757 24.4769 19.5611 24.6832 19.5611 24.8982V29.7631C19.5611 29.9781 19.4757 30.1844 19.3236 30.3364C19.1716 30.4885 18.9653 30.5739 18.7503 30.5739ZM9.02055 28.9523H17.9395V25.709H9.02055V28.9523Z" fill="#FC5E16" stroke="#FC5E16"/>
<path d="M18.7503 52.7028H8.20974C7.9947 52.7028 7.78846 52.6174 7.63641 52.4653C7.48435 52.3133 7.39893 52.107 7.39893 51.892V47.0271C7.39893 46.8121 7.48435 46.6058 7.63641 46.4538C7.78846 46.3017 7.9947 46.2163 8.20974 46.2163H18.7503C18.9653 46.2163 19.1716 46.3017 19.3236 46.4538C19.4757 46.6058 19.5611 46.8121 19.5611 47.0271V51.892C19.5611 52.107 19.4757 52.3133 19.3236 52.4653C19.1716 52.6174 18.9653 52.7028 18.7503 52.7028ZM9.02055 51.0812H17.9395V47.8379H9.02055V51.0812Z" fill="#FC5E16" stroke="#FC5E16"/>
<path d="M57.5676 21.0809H2.43245C2.25763 21.0807 2.08756 21.024 1.94759 20.9193C1.80762 20.8146 1.70525 20.6674 1.65575 20.4997C1.60624 20.3321 1.61225 20.1529 1.67288 19.9889C1.73351 19.825 1.84551 19.685 1.99218 19.5899L29.5598 1.75202C29.6909 1.66719 29.8438 1.62207 30 1.62207C30.1562 1.62207 30.3091 1.66719 30.4403 1.75202L58.0079 19.5899C58.1545 19.685 58.2665 19.825 58.3272 19.9889C58.3878 20.1529 58.3938 20.3321 58.3443 20.4997C58.2948 20.6674 58.1924 20.8146 58.0525 20.9193C57.9125 21.024 57.7424 21.0807 57.5676 21.0809ZM5.17786 19.4593H54.8222L30 3.39796L5.17786 19.4593Z" fill="#FC5E16" stroke="#FC5E16"/>
<path d="M49.8648 47.8378H43.1756C42.9605 47.8378 42.7543 47.7524 42.6022 47.6003C42.4502 47.4483 42.3647 47.242 42.3647 47.027V29.7632C42.3647 29.5482 42.4502 29.3419 42.6022 29.1899C42.7543 29.0378 42.9605 28.9524 43.1756 28.9524H49.8648C50.0798 28.9524 50.286 29.0378 50.4381 29.1899C50.5901 29.3419 50.6756 29.5482 50.6756 29.7632V47.027C50.6756 47.242 50.5901 47.4483 50.4381 47.6003C50.286 47.7524 50.0798 47.8378 49.8648 47.8378ZM43.9864 46.2162H49.0539V30.574H43.9864V46.2162Z" fill="#FC5E16" stroke="#FC5E16"/>
<path d="M51.7908 30.5739H41.2503C41.0352 30.5739 40.829 30.4885 40.6769 30.3364C40.5249 30.1844 40.4395 29.9781 40.4395 29.7631V24.8982C40.4395 24.6832 40.5249 24.4769 40.6769 24.3249C40.829 24.1728 41.0352 24.0874 41.2503 24.0874H51.7908C52.0058 24.0874 52.2121 24.1728 52.3641 24.3249C52.5162 24.4769 52.6016 24.6832 52.6016 24.8982V29.7631C52.6016 29.9781 52.5162 30.1844 52.3641 30.3364C52.2121 30.4885 52.0058 30.5739 51.7908 30.5739ZM42.0611 28.9523H50.98V25.709H42.0611V28.9523Z" fill="#FC5E16" stroke="#FC5E16"/>
<path d="M51.7908 52.7028H41.2503C41.0352 52.7028 40.829 52.6174 40.6769 52.4653C40.5249 52.3133 40.4395 52.107 40.4395 51.892V47.0271C40.4395 46.8121 40.5249 46.6058 40.6769 46.4538C40.829 46.3017 41.0352 46.2163 41.2503 46.2163H51.7908C52.0058 46.2163 52.2121 46.3017 52.3641 46.4538C52.5162 46.6058 52.6016 46.8121 52.6016 47.0271V51.892C52.6016 52.107 52.5162 52.3133 52.3641 52.4653C52.2121 52.6174 52.0058 52.7028 51.7908 52.7028ZM42.0611 51.0812H50.98V47.8379H42.0611V51.0812Z" fill="#FC5E16" stroke="#FC5E16"/>
<path d="M33.3442 47.8378H26.655C26.44 47.8378 26.2338 47.7524 26.0817 47.6003C25.9297 47.4483 25.8442 47.242 25.8442 47.027V29.7632C25.8442 29.5482 25.9297 29.3419 26.0817 29.1899C26.2338 29.0378 26.44 28.9524 26.655 28.9524H33.3442C33.5593 28.9524 33.7655 29.0378 33.9176 29.1899C34.0696 29.3419 34.1551 29.5482 34.1551 29.7632V47.027C34.1551 47.242 34.0696 47.4483 33.9176 47.6003C33.7655 47.7524 33.5593 47.8378 33.3442 47.8378ZM27.4659 46.2162H32.5334V30.574H27.4659V46.2162Z" fill="#FC5E16" stroke="#FC5E16"/>
<path d="M35.2698 30.5739H24.7293C24.5142 30.5739 24.308 30.4885 24.1559 30.3364C24.0039 30.1844 23.9185 29.9781 23.9185 29.7631V24.8982C23.9185 24.6832 24.0039 24.4769 24.1559 24.3249C24.308 24.1728 24.5142 24.0874 24.7293 24.0874H35.2698C35.4848 24.0874 35.6911 24.1728 35.8431 24.3249C35.9952 24.4769 36.0806 24.6832 36.0806 24.8982V29.7631C36.0806 29.9781 35.9952 30.1844 35.8431 30.3364C35.6911 30.4885 35.4848 30.5739 35.2698 30.5739ZM25.5401 28.9523H34.459V25.709H25.5401V28.9523Z" fill="#FC5E16" stroke="#FC5E16"/>
<path d="M35.2698 52.7028H24.7293C24.5142 52.7028 24.308 52.6174 24.1559 52.4653C24.0039 52.3133 23.9185 52.107 23.9185 51.892V47.0271C23.9185 46.8121 24.0039 46.6058 24.1559 46.4538C24.308 46.3017 24.5142 46.2163 24.7293 46.2163H35.2698C35.4848 46.2163 35.6911 46.3017 35.8431 46.4538C35.9952 46.6058 36.0806 46.8121 36.0806 47.0271V51.892C36.0806 52.107 35.9952 52.3133 35.8431 52.4653C35.6911 52.6174 35.4848 52.7028 35.2698 52.7028ZM25.5401 51.0812H34.459V47.8379H25.5401V51.0812Z" fill="#FC5E16" stroke="#FC5E16"/>
<path d="M16.6218 58.3785H14.2381C14.023 58.3785 13.8168 58.293 13.6647 58.141C13.5127 57.9889 13.4272 57.7827 13.4272 57.5676C13.4272 57.3526 13.5127 57.1464 13.6647 56.9943C13.8168 56.8423 14.023 56.7568 14.2381 56.7568H16.6218C16.8369 56.7568 17.0431 56.8423 17.1952 56.9943C17.3472 57.1464 17.4327 57.3526 17.4327 57.5676C17.4327 57.7827 17.3472 57.9889 17.1952 58.141C17.0431 58.293 16.8369 58.3785 16.6218 58.3785Z" fill="#FC5E16" stroke="#FC5E16"/>
<path d="M56.7565 58.3784H30.3565C30.1414 58.3784 29.9352 58.2929 29.7831 58.1409C29.6311 57.9888 29.5456 57.7826 29.5456 57.5675C29.5456 57.3525 29.6311 57.1463 29.7831 56.9942C29.9352 56.8422 30.1414 56.7567 30.3565 56.7567H55.9456V53.5135C55.9456 53.2984 55.8602 53.0922 55.7082 52.9402C55.5561 52.7881 55.3499 52.7027 55.1348 52.7027H4.86456C4.64952 52.7027 4.44329 52.7881 4.29123 52.9402C4.13918 53.0922 4.05375 53.2984 4.05375 53.5135V56.7567H8.56186C8.7769 56.7567 8.98313 56.8422 9.13519 56.9942C9.28725 57.1463 9.37267 57.3525 9.37267 57.5675C9.37267 57.7826 9.28725 57.9888 9.13519 58.1409C8.98313 58.2929 8.7769 58.3784 8.56186 58.3784H3.24294C3.0279 58.3784 2.82167 58.2929 2.66961 58.1409C2.51755 57.9888 2.43213 57.7826 2.43213 57.5675V53.5135C2.43213 52.8684 2.6884 52.2497 3.14457 51.7935C3.60074 51.3373 4.21944 51.0811 4.86456 51.0811H55.1348C55.78 51.0811 56.3987 51.3373 56.8548 51.7935C57.311 52.2497 57.5673 52.8684 57.5673 53.5135V57.5675C57.5673 57.7826 57.4818 57.9888 57.3298 58.1409C57.1777 58.2929 56.9715 58.3784 56.7565 58.3784Z" fill="#FC5E16" stroke="#FC5E16"/>
<path d="M24.6809 58.3785H22.2971C22.0821 58.3785 21.8759 58.293 21.7238 58.141C21.5718 57.9889 21.4863 57.7827 21.4863 57.5676C21.4863 57.3526 21.5718 57.1464 21.7238 56.9943C21.8759 56.8423 22.0821 56.7568 22.2971 56.7568H24.6809C24.896 56.7568 25.1022 56.8423 25.2543 56.9943C25.4063 57.1464 25.4917 57.3526 25.4917 57.5676C25.4917 57.7827 25.4063 57.9889 25.2543 58.141C25.1022 58.293 24.896 58.3785 24.6809 58.3785Z" fill="#FC5E16" stroke="#FC5E16"/>
<path d="M29.9995 16.6978C29.1875 16.698 28.3938 16.4574 27.7186 16.0064C27.0434 15.5554 26.5171 14.9143 26.2063 14.1642C25.8954 13.4141 25.814 12.5887 25.9723 11.7923C26.1306 10.9959 26.5216 10.2644 27.0956 9.6902C27.6697 9.11601 28.4012 8.72495 29.1975 8.56649C29.9939 8.40803 30.8193 8.48927 31.5695 8.79996C32.3196 9.11064 32.9608 9.63681 33.4119 10.3119C33.863 10.987 34.1038 11.7807 34.1038 12.5927C34.1027 13.681 33.67 14.7244 32.9006 15.494C32.1311 16.2636 31.0878 16.6965 29.9995 16.6978ZM29.9995 10.11C29.5082 10.1098 29.028 10.2554 28.6194 10.5282C28.2109 10.801 27.8925 11.1889 27.7044 11.6427C27.5163 12.0966 27.4671 12.596 27.5629 13.0778C27.6587 13.5596 27.8952 14.0022 28.2426 14.3496C28.59 14.697 29.0325 14.9335 29.5144 15.0293C29.9962 15.1251 30.4956 15.0759 30.9495 14.8878C31.4033 14.6997 31.7912 14.3813 32.064 13.9728C32.3368 13.5642 32.4824 13.0839 32.4822 12.5927C32.4813 11.9345 32.2195 11.3035 31.7541 10.8381C31.2887 10.3727 30.6577 10.1108 29.9995 10.11Z" fill="#FC5E16" stroke="#FC5E16"/>
<path d="M54.3242 25.7092H5.67556C5.46052 25.7092 5.25428 25.6238 5.10223 25.4717C4.95017 25.3197 4.86475 25.1134 4.86475 24.8984V20.2703C4.86475 20.0552 4.95017 19.849 5.10223 19.697C5.25428 19.5449 5.46052 19.4595 5.67556 19.4595H54.3242C54.5392 19.4595 54.7455 19.5449 54.8975 19.697C55.0496 19.849 55.135 20.0552 55.135 20.2703V24.8984C55.135 25.1134 55.0496 25.3197 54.8975 25.4717C54.7455 25.6238 54.5392 25.7092 54.3242 25.7092ZM6.48637 24.0876H53.5134V21.0811H6.48637V24.0876Z" fill="#FC5E16" stroke="#FC5E16"/>
</svg>
