<svg width="60" height="60" viewBox="0 0 60 60" fill="none" xmlns="http://www.w3.org/2000/svg">
<path d="M48.0645 17.4406C47.8818 17.4405 47.7045 17.3787 47.5613 17.2653C47.4181 17.1518 47.3175 16.9933 47.2756 16.8155C47.0942 16.041 46.8524 15.2819 46.5524 14.5452C46.5163 14.445 46.5003 14.3386 46.5053 14.2321C46.5103 14.1257 46.5362 14.0213 46.5816 13.9249C46.627 13.8285 46.6909 13.742 46.7697 13.6703C46.8485 13.5985 46.9406 13.5431 47.0409 13.507C47.1411 13.4709 47.2475 13.4549 47.3539 13.4599C47.4604 13.4649 47.5648 13.4908 47.6612 13.5362C47.7576 13.5816 47.8441 13.6455 47.9158 13.7243C47.9875 13.8031 48.043 13.8952 48.0791 13.9955C48.3995 14.7913 48.6586 15.6105 48.8543 16.4457C48.9029 16.6547 48.8668 16.8745 48.7537 17.0569C48.6406 17.2393 48.4599 17.3694 48.251 17.4187C48.1899 17.4331 48.1273 17.4404 48.0645 17.4406Z" fill="#FC5E16" stroke="#FC5E16"/>
<path d="M38.781 44.0432H21.2188C21.0037 44.0432 20.7975 43.9578 20.6455 43.8057C20.4934 43.6536 20.408 43.4474 20.408 43.2324V42.1864C20.408 38.7891 19.0864 37.4959 16.4528 34.9183C13.1732 31.7255 11.128 27.476 10.6787 22.921C10.2294 18.366 11.4049 13.7987 13.9975 10.0267C16.5901 6.25462 20.4328 3.52059 24.8464 2.30789C29.2599 1.09519 33.9601 1.4819 38.1161 3.39967C38.3045 3.49406 38.4487 3.65809 38.5182 3.85699C38.5878 4.0559 38.5772 4.27406 38.4886 4.46527C38.4001 4.65647 38.2406 4.8057 38.0439 4.88134C37.8472 4.95698 37.6288 4.95308 37.435 4.87048C33.6294 3.117 29.3268 2.7637 25.2861 3.87289C21.2454 4.98209 17.7262 7.48252 15.3491 10.9332C12.972 14.3839 11.8898 18.5631 12.2933 22.7338C12.6969 26.9045 14.5602 30.7987 17.5547 33.7297C20.2628 36.3802 22.0296 38.108 22.0296 42.1889V42.424H37.9701V42.1889C37.9701 38.1697 39.6866 36.467 42.2837 33.8886L42.5391 33.6348C45.3705 30.8105 47.1696 27.1159 47.6472 23.1453C47.6755 22.9345 47.7855 22.7432 47.9536 22.6127C48.1217 22.4823 48.3343 22.4231 48.5456 22.448C48.757 22.4729 48.95 22.5799 49.0832 22.7458C49.2163 22.9118 49.2789 23.1234 49.2574 23.3351C48.7364 27.6686 46.773 31.701 43.6831 34.7837L43.4261 35.0383C40.9539 37.4926 39.5918 38.8443 39.5918 42.188V43.234C39.5913 43.4487 39.5057 43.6546 39.3537 43.8063C39.2017 43.958 38.9957 44.0432 38.781 44.0432Z" fill="#FC5E16" stroke="#FC5E16"/>
<path d="M44.4416 10.1351C44.3192 10.1353 44.1983 10.1077 44.0881 10.0545C43.9778 10.0012 43.8811 9.92375 43.8051 9.82781C43.332 9.23656 42.8172 8.67999 42.2645 8.1624C42.1871 8.08925 42.1248 8.00156 42.0812 7.90434C42.0376 7.80711 42.0136 7.70226 42.0106 7.59576C42.0075 7.48926 42.0255 7.3832 42.0634 7.28364C42.1014 7.18408 42.1585 7.09297 42.2317 7.01551C42.3048 6.93805 42.3925 6.87575 42.4898 6.83218C42.587 6.78861 42.6918 6.76461 42.7983 6.76156C42.9048 6.75851 43.0109 6.77647 43.1105 6.81441C43.21 6.85235 43.3011 6.90952 43.3786 6.98267C43.9894 7.5539 44.5584 8.16818 45.0813 8.82078C45.1759 8.94019 45.235 9.08384 45.2517 9.23527C45.2684 9.3867 45.2421 9.53978 45.1759 9.67696C45.1096 9.81414 45.006 9.92988 44.877 10.0109C44.748 10.0919 44.5988 10.135 44.4464 10.1351H44.4416Z" fill="#FC5E16" stroke="#FC5E16"/>
<path d="M41.6642 49.9857H18.3356C17.9951 49.9853 17.6687 49.8498 17.4279 49.609C17.1871 49.3683 17.0517 49.0419 17.0513 48.7014V43.7084C17.0517 43.3679 17.1871 43.0415 17.4279 42.8007C17.6687 42.56 17.9951 42.4245 18.3356 42.4241H41.6642C42.0047 42.4245 42.3311 42.56 42.5719 42.8007C42.8127 43.0415 42.9481 43.3679 42.9486 43.7084V48.7014C42.9481 49.0419 42.8127 49.3683 42.5719 49.609C42.3311 49.8498 42.0047 49.9853 41.6642 49.9857ZM18.6729 48.3641H41.3269V44.0457H18.6729V48.3641Z" fill="#FC5E16" stroke="#FC5E16"/>
<path d="M34.6298 58.3784H25.3703C24.6469 58.3775 23.9533 58.0898 23.4417 57.5783C22.9301 57.0669 22.6422 56.3734 22.6411 55.65V49.1748C22.6411 48.9598 22.7265 48.7536 22.8786 48.6015C23.0307 48.4494 23.2369 48.364 23.4519 48.364H36.5481C36.7632 48.364 36.9694 48.4494 37.1215 48.6015C37.2735 48.7536 37.359 48.9598 37.359 49.1748V55.65C37.3579 56.3734 37.07 57.0669 36.5584 57.5783C36.0467 58.0898 35.3532 58.3775 34.6298 58.3784ZM24.2627 49.9856V55.65C24.2632 55.9435 24.38 56.2249 24.5877 56.4324C24.7953 56.6399 25.0768 56.7565 25.3703 56.7567H34.6298C34.9233 56.7565 35.2048 56.6399 35.4124 56.4324C35.62 56.2249 35.7369 55.9435 35.7373 55.65V49.9856H24.2627Z" fill="#FC5E16" stroke="#FC5E16"/>
<path d="M40.7638 54.1792H36.5476C36.3326 54.1792 36.1264 54.0938 35.9743 53.9418C35.8222 53.7897 35.7368 53.5835 35.7368 53.3684C35.7368 53.1534 35.8222 52.9472 35.9743 52.7951C36.1264 52.643 36.3326 52.5576 36.5476 52.5576H40.7638C40.9789 52.5576 41.1851 52.643 41.3372 52.7951C41.4892 52.9472 41.5747 53.1534 41.5747 53.3684C41.5747 53.5835 41.4892 53.7897 41.3372 53.9418C41.1851 54.0938 40.9789 54.1792 40.7638 54.1792Z" fill="#FC5E16" stroke="#FC5E16"/>
<path d="M23.4509 54.1792H19.2346C19.0196 54.1792 18.8134 54.0938 18.6613 53.9418C18.5093 53.7897 18.4238 53.5835 18.4238 53.3684C18.4238 53.1534 18.5093 52.9472 18.6613 52.7951C18.8134 52.643 19.0196 52.5576 19.2346 52.5576H23.4509C23.6659 52.5576 23.8721 52.643 24.0242 52.7951C24.1762 52.9472 24.2617 53.1534 24.2617 53.3684C24.2617 53.5835 24.1762 53.7897 24.0242 53.9418C23.8721 54.0938 23.6659 54.1792 23.4509 54.1792Z" fill="#FC5E16" stroke="#FC5E16"/>
<path d="M30 26.5038C29.7849 26.5038 29.5787 26.4183 29.4267 26.2663C29.2746 26.1142 29.1892 25.908 29.1892 25.6929V25.2973C29.1892 23.0481 30.523 22.02 32.1332 21C32.8195 20.5655 33.3575 19.9328 33.6761 19.1856C33.9946 18.4385 34.0786 17.6122 33.917 16.8162C33.7159 15.8482 33.163 14.9892 32.3653 14.4052C31.5675 13.8213 30.5816 13.5539 29.5981 13.6547C28.6146 13.7556 27.7035 14.2176 27.0409 14.9513C26.3782 15.685 26.0112 16.6384 26.0108 17.627C26.0108 17.842 25.9254 18.0483 25.7733 18.2003C25.6213 18.3524 25.415 18.4378 25.2 18.4378C24.9849 18.4378 24.7787 18.3524 24.6266 18.2003C24.4746 18.0483 24.3892 17.842 24.3892 17.627C24.3877 16.6501 24.641 15.6898 25.1242 14.8408C25.6073 13.9918 26.3036 13.2835 27.1442 12.7859C27.9848 12.2883 28.9407 12.0186 29.9174 12.0034C30.8941 11.9882 31.8579 12.228 32.7136 12.6992C33.5693 13.1704 34.2873 13.8566 34.7967 14.6902C35.306 15.5237 35.5891 16.4757 35.6181 17.4521C35.647 18.4286 35.4207 19.3956 34.9615 20.2579C34.5024 21.1201 33.8263 21.8476 33 22.3686C31.5105 23.3116 30.8108 23.9092 30.8108 25.2965V25.6929C30.8108 25.908 30.7254 26.1142 30.5733 26.2663C30.4213 26.4183 30.215 26.5038 30 26.5038Z" fill="#FC5E16" stroke="#FC5E16"/>
<path d="M30.0003 30.8109C29.7852 30.8109 29.579 30.7254 29.4269 30.5734C29.2749 30.4213 29.1895 30.2151 29.1895 30V29.1892C29.1895 28.9742 29.2749 28.768 29.4269 28.6159C29.579 28.4638 29.7852 28.3784 30.0003 28.3784C30.2153 28.3784 30.4215 28.4638 30.5736 28.6159C30.7257 28.768 30.8111 28.9742 30.8111 29.1892V30C30.8111 30.2151 30.7257 30.4213 30.5736 30.5734C30.4215 30.7254 30.2153 30.8109 30.0003 30.8109Z" fill="#FC5E16" stroke="#FC5E16"/>
</svg>
