<svg width="60" height="60" viewBox="0 0 60 60" fill="none" xmlns="http://www.w3.org/2000/svg">
<path d="M30.6664 58.0929H2.43239C2.21735 58.0929 2.01112 58.0075 1.85906 57.8554C1.70701 57.7034 1.62158 57.4971 1.62158 57.2821V54.6356C1.62244 53.7187 1.98705 52.8396 2.63539 52.1913C3.28372 51.543 4.16281 51.1783 5.07969 51.1775H28.02C28.9367 51.1786 29.8156 51.5433 30.4637 52.1916C31.1119 52.8399 31.4764 53.7189 31.4773 54.6356V57.2821C31.4773 57.4971 31.3918 57.7034 31.2398 57.8554C31.0877 58.0075 30.8815 58.0929 30.6664 58.0929ZM3.2432 56.4713H29.8556V54.6356C29.8552 54.1488 29.6617 53.6821 29.3176 53.3378C28.9734 52.9935 28.5068 52.7998 28.02 52.7991H5.07969C4.59276 52.7995 4.12589 52.9932 3.78157 53.3375C3.43726 53.6818 3.24363 54.1487 3.2432 54.6356V56.4713Z" fill="#FC5E16" stroke="#FC5E16"/>
<path d="M26.2553 52.7993H6.8445C6.62946 52.7993 6.42323 52.7138 6.27117 52.5618C6.11912 52.4097 6.03369 52.2035 6.03369 51.9884V49.0476C6.03434 48.3648 6.30582 47.7101 6.78859 47.2272C7.27136 46.7442 7.92598 46.4725 8.60883 46.4717H24.491C25.1739 46.4723 25.8286 46.744 26.3115 47.2269C26.7943 47.7099 27.0657 48.3647 27.0661 49.0476V51.9884C27.0661 52.2035 26.9807 52.4097 26.8286 52.5618C26.6766 52.7138 26.4704 52.7993 26.2553 52.7993ZM7.65531 51.1776H25.4445V49.0476C25.4445 48.7947 25.3441 48.5521 25.1653 48.3731C24.9865 48.1942 24.7439 48.0935 24.491 48.0933H8.60883C8.35593 48.0937 8.11353 48.1944 7.93478 48.3733C7.75603 48.5522 7.65553 48.7947 7.65531 49.0476V51.1776Z" fill="#FC5E16" stroke="#FC5E16"/>
<path d="M26.5498 36.944C26.443 36.9441 26.3372 36.9231 26.2386 36.8822C26.1399 36.8413 26.0503 36.7813 25.9749 36.7056L13.8809 24.5435C13.8055 24.4682 13.7457 24.3787 13.7049 24.2803C13.6641 24.1819 13.6431 24.0764 13.6431 23.9698C13.6431 23.8633 13.6641 23.7577 13.7049 23.6593C13.7457 23.5609 13.8055 23.4715 13.8809 23.3962L29.883 7.50832C30.0356 7.35686 30.2421 7.27219 30.4571 7.27295C30.6721 7.27371 30.878 7.35984 31.0295 7.51238L43.1236 19.6745C43.199 19.7498 43.2588 19.8393 43.2996 19.9377C43.3404 20.0361 43.3614 20.1416 43.3614 20.2482C43.3614 20.3547 43.3404 20.4602 43.2996 20.5587C43.2588 20.6571 43.199 20.7465 43.1236 20.8218L27.1214 36.7089C26.9694 36.8596 26.7639 36.9442 26.5498 36.944ZM15.6022 23.9759L26.5538 34.9875L41.4014 20.2413L30.4555 9.22968L15.6022 23.9759Z" fill="#FC5E16" stroke="#FC5E16"/>
<path d="M44.9189 22.2064H44.91C44.4168 22.2064 43.9286 22.1086 43.4735 21.9186C43.0184 21.7286 42.6055 21.4503 42.2586 21.0997L29.5313 8.30509C29.0089 7.77964 28.6538 7.11128 28.5106 6.38427C28.3675 5.65726 28.4428 4.90415 28.727 4.21988C29.0113 3.53561 29.4918 2.95081 30.1079 2.53921C30.724 2.1276 31.4482 1.90762 32.1892 1.90698H32.1989C32.6921 1.90651 33.1804 2.00403 33.6356 2.19388C34.0907 2.38374 34.5036 2.66215 34.8503 3.01293L47.5776 15.8108C48.0988 16.3365 48.4529 17.0047 48.5953 17.7313C48.7377 18.4578 48.6621 19.2102 48.3779 19.8939C48.0937 20.5775 47.6137 21.1619 46.9982 21.5734C46.3827 21.9848 45.6593 22.2051 44.9189 22.2064ZM32.1892 3.52861C31.7685 3.52917 31.3574 3.65425 31.0077 3.88807C30.658 4.12189 30.3853 4.45399 30.224 4.84252C30.0628 5.23106 30.0201 5.65864 30.1014 6.07138C30.1828 6.48411 30.3844 6.86354 30.6811 7.16185L43.4059 19.9564C43.6028 20.1556 43.8373 20.3137 44.0958 20.4216C44.3542 20.5294 44.6315 20.5849 44.9116 20.5848H44.9189C45.3398 20.5847 45.7513 20.4599 46.1015 20.2262C46.4516 19.9925 46.7247 19.6604 46.8863 19.2717C47.048 18.8831 47.0909 18.4552 47.0098 18.0422C46.9286 17.6291 46.7269 17.2494 46.4303 16.9508L33.703 4.15617C33.506 3.95712 33.2715 3.79915 33.013 3.69142C32.7546 3.58369 32.4773 3.52835 32.1973 3.52861H32.1892Z" fill="#FC5E16" stroke="#FC5E16"/>
<path d="M24.8164 42.3066H24.8107C24.3175 42.3065 23.8293 42.2087 23.3742 42.0187C22.9191 41.8287 22.5062 41.5504 22.1593 41.1998L9.43124 28.4052C8.90867 27.8796 8.55346 27.211 8.4104 26.4838C8.26735 25.7565 8.34286 25.0032 8.62742 24.3189C8.91197 23.6345 9.39282 23.0497 10.0093 22.6383C10.6258 22.2269 11.3503 22.0072 12.0915 22.0071H12.1012C12.5943 22.007 13.0826 22.1047 13.5377 22.2945C13.9928 22.4844 14.4057 22.7626 14.7526 23.113L27.4766 35.9084C27.9992 36.434 28.3544 37.1026 28.4975 37.8299C28.6405 38.5571 28.565 39.3104 28.2805 39.9948C27.9959 40.6791 27.5151 41.2639 26.8986 41.6753C26.2821 42.0868 25.5575 42.3064 24.8164 42.3066ZM12.0915 23.6287C11.6706 23.6288 11.2592 23.7535 10.9091 23.9872C10.559 24.2208 10.286 24.5529 10.1244 24.9415C9.96283 25.3301 9.91996 25.7579 10.0012 26.1709C10.0825 26.5838 10.2842 26.9635 10.581 27.2619L23.3058 40.0541C23.5027 40.2533 23.7372 40.4114 23.9957 40.5192C24.2541 40.6271 24.5314 40.6826 24.8115 40.6825H24.8164C25.2364 40.6818 25.6469 40.557 25.9962 40.3237C26.3455 40.0903 26.618 39.7589 26.7795 39.3711C26.9409 38.9833 26.9841 38.5565 26.9036 38.1442C26.823 37.7319 26.6224 37.3527 26.3269 37.0541L13.6029 24.2571C13.4059 24.058 13.1714 23.8999 12.913 23.7921C12.6545 23.6842 12.3772 23.6287 12.0972 23.6287H12.0915Z" fill="#FC5E16" stroke="#FC5E16"/>
<path d="M50.8132 40.8972C50.5982 40.8972 50.392 40.8117 50.24 40.6597L48.5535 38.9732C48.4015 38.8208 48.3162 38.6143 48.3164 38.3991C48.3166 38.1838 48.4024 37.9775 48.5547 37.8255C48.7071 37.6734 48.9136 37.5882 49.1288 37.5884C49.3441 37.5886 49.5504 37.6743 49.7024 37.8267L51.3889 39.5132C51.5023 39.6266 51.5795 39.771 51.6107 39.9283C51.642 40.0856 51.6259 40.2486 51.5646 40.3967C51.5032 40.5448 51.3993 40.6714 51.266 40.7605C51.1327 40.8496 50.976 40.8972 50.8157 40.8972H50.8132Z" fill="#FC5E16" stroke="#FC5E16"/>
<path d="M54.5059 51.9811C53.9966 51.9825 53.4921 51.883 53.0216 51.6881C52.551 51.4933 52.1238 51.207 51.7646 50.846L31.8267 30.9162C31.6747 30.7642 31.5894 30.558 31.5894 30.343C31.5894 30.128 31.6747 29.9218 31.8267 29.7697L36.1646 25.4319C36.3209 25.2803 36.5298 25.1951 36.7476 25.1943C36.8557 25.1956 36.9625 25.2185 37.0616 25.2617C37.1607 25.3049 37.2503 25.3674 37.3249 25.4457L39.9876 28.1165C40.0665 28.1911 40.1297 28.2808 40.1733 28.3803C40.2169 28.4798 40.2401 28.587 40.2415 28.6957C40.2429 28.8043 40.2224 28.9121 40.1813 29.0126C40.1402 29.1132 40.0793 29.2045 40.0023 29.281C39.9252 29.3576 39.8335 29.4179 39.7327 29.4584C39.6319 29.4988 39.524 29.5186 39.4154 29.5166C39.3067 29.5145 39.1997 29.4906 39.1004 29.4464C39.0012 29.4021 38.9119 29.3384 38.8378 29.2589L36.7354 27.1508L33.5473 30.3406L52.9111 49.697C53.1199 49.9074 53.3684 50.0743 53.6421 50.188C53.9159 50.3018 54.2095 50.36 54.5059 50.3595C54.9512 50.3589 55.3863 50.2262 55.7562 49.9782C56.1261 49.7302 56.4141 49.3781 56.5838 48.9664C56.7535 48.5547 56.7972 48.1019 56.7095 47.6653C56.6218 47.2288 56.4066 46.828 56.0911 46.5138L54.2505 44.6733C54.1028 44.5203 54.0211 44.3155 54.0229 44.1029C54.0248 43.8903 54.1101 43.687 54.2604 43.5366C54.4107 43.3863 54.6141 43.301 54.8267 43.2992C55.0393 43.2973 55.2441 43.3791 55.397 43.5268L57.2376 45.3673C57.7781 45.9088 58.1462 46.5981 58.2957 47.3485C58.4451 48.0988 58.3691 48.8766 58.0773 49.5838C57.7854 50.2911 57.2908 50.8961 56.6557 51.3227C56.0206 51.7493 55.2734 51.9784 54.5084 51.9811H54.5059Z" fill="#FC5E16" stroke="#FC5E16"/>
<path d="M45.1138 35.1973C44.8988 35.1973 44.6926 35.1118 44.5405 34.9597L42.8541 33.2733C42.7064 33.1203 42.6246 32.9155 42.6265 32.7029C42.6283 32.4903 42.7136 32.287 42.8639 32.1366C43.0143 31.9863 43.2176 31.901 43.4302 31.8992C43.6428 31.8974 43.8476 31.9791 44.0005 32.1268L45.687 33.8133C45.8004 33.9267 45.8776 34.0711 45.9089 34.2284C45.9401 34.3856 45.9241 34.5486 45.8627 34.6968C45.8014 34.8449 45.6975 34.9715 45.5642 35.0606C45.4309 35.1497 45.2741 35.1973 45.1138 35.1973Z" fill="#FC5E16" stroke="#FC5E16"/>
</svg>
