<svg width="175" height="59" viewBox="0 0 175 59" fill="none" xmlns="http://www.w3.org/2000/svg">
<path d="M73.1641 32.2324C72.9004 34.4883 72.0654 36.2314 70.6592 37.4619C69.2627 38.6826 67.4023 39.293 65.0781 39.293C62.5586 39.293 60.5371 38.3896 59.0137 36.583C57.5 34.7764 56.7432 32.3594 56.7432 29.332V27.2812C56.7432 25.2988 57.0947 23.5556 57.7979 22.0517C58.5107 20.5478 59.5166 19.3955 60.8154 18.5947C62.1143 17.7842 63.6182 17.3789 65.3271 17.3789C67.5928 17.3789 69.4092 18.0137 70.7764 19.2832C72.1436 20.543 72.9395 22.291 73.1641 24.5273H70.3369C70.0928 22.8281 69.5605 21.5976 68.7402 20.8359C67.9297 20.0742 66.792 19.6933 65.3271 19.6933C63.5303 19.6933 62.1191 20.3574 61.0938 21.6855C60.0781 23.0137 59.5703 24.9033 59.5703 27.3545V29.4199C59.5703 31.7344 60.0537 33.5752 61.0205 34.9424C61.9873 36.3096 63.3398 36.9931 65.0781 36.9931C66.6406 36.9931 67.8369 36.6416 68.667 35.9385C69.5068 35.2256 70.0635 33.9902 70.3369 32.2324H73.1641Z" fill="white"/>
<path d="M84.8389 30.3721H79.8291V39H77.002V17.6719H84.0625C86.4648 17.6719 88.3105 18.2187 89.5996 19.3125C90.8984 20.4062 91.5479 21.998 91.5479 24.0879C91.5479 25.416 91.1865 26.5732 90.4639 27.5596C89.751 28.5459 88.7549 29.2832 87.4756 29.7715L92.4854 38.8242V39H89.4678L84.8389 30.3721ZM79.8291 28.0723H84.1504C85.5469 28.0723 86.6553 27.7109 87.4756 26.9883C88.3057 26.2656 88.7207 25.2988 88.7207 24.0879C88.7207 22.7695 88.3252 21.7588 87.5342 21.0556C86.7529 20.3525 85.6201 19.9961 84.1357 19.9863H79.8291V28.0723Z" fill="white"/>
<path d="M107.559 29.1416H98.3154V36.7002H109.053V39H95.5029V17.6719H108.906V19.9863H98.3154V26.8418H107.559V29.1416Z" fill="white"/>
<path d="M112.554 39V17.6719H118.574C120.43 17.6719 122.07 18.082 123.496 18.9023C124.922 19.7226 126.021 20.8896 126.792 22.4033C127.573 23.917 127.969 25.6553 127.979 27.6181V28.9805C127.979 30.9922 127.588 32.7549 126.807 34.2685C126.035 35.7822 124.927 36.9443 123.481 37.7549C122.046 38.5654 120.371 38.9805 118.457 39H112.554ZM115.366 19.9863V36.7002H118.325C120.493 36.7002 122.178 36.0264 123.379 34.6787C124.59 33.331 125.195 31.4121 125.195 28.9219V27.6767C125.195 25.2549 124.624 23.375 123.481 22.0371C122.349 20.6894 120.737 20.0058 118.647 19.9863H115.366Z" fill="white"/>
<path d="M148.647 29.0244C148.647 31.1142 148.296 32.9404 147.593 34.5029C146.89 36.0556 145.894 37.2422 144.604 38.0625C143.315 38.8828 141.812 39.293 140.093 39.293C138.413 39.293 136.924 38.8828 135.625 38.0625C134.326 37.2324 133.315 36.0556 132.593 34.5322C131.88 32.999 131.514 31.2265 131.494 29.2148V27.6767C131.494 25.626 131.851 23.8144 132.563 22.2422C133.276 20.6699 134.282 19.4687 135.581 18.6387C136.89 17.7988 138.384 17.3789 140.063 17.3789C141.772 17.3789 143.276 17.7939 144.575 18.624C145.884 19.4443 146.89 20.6406 147.593 22.2129C148.296 23.7754 148.647 25.5967 148.647 27.6767V29.0244ZM145.85 27.6474C145.85 25.1181 145.342 23.1797 144.326 21.832C143.311 20.4746 141.89 19.7959 140.063 19.7959C138.286 19.7959 136.885 20.4746 135.859 21.832C134.844 23.1797 134.321 25.0547 134.292 27.457V29.0244C134.292 31.4756 134.805 33.4043 135.83 34.8105C136.865 36.207 138.286 36.9053 140.093 36.9053C141.909 36.9053 143.315 36.2461 144.312 34.9277C145.308 33.5996 145.82 31.7002 145.85 29.2295V27.6474Z" fill="white"/>
<path d="M156.499 17.6719L163.472 35.0742L170.444 17.6719H174.092V39H171.279V30.6943L171.543 21.7295L164.541 39H162.388L155.4 21.7734L155.679 30.6943V39H152.866V17.6719H156.499Z" fill="white"/>
<path d="M12.2195 59H0V2.62622H12.2195C27.8526 2.62622 40.5259 15.2457 40.5259 30.8129C40.5259 46.3805 27.8526 59 12.2195 59Z" fill="#EF4B00"/>
<path d="M17.099 1.59981V54.5645C32.1801 54.4034 44.3993 43.1373 44.3993 28.0822C44.3993 13.0275 32.1801 1.76094 17.099 1.59981ZM17.7986 56.1644H15.4982V-1.52588e-05H17.7986C33.3488 -1.52588e-05 46 12.5975 46 28.0822C46 43.5668 33.3488 56.1644 17.7986 56.1644Z" fill="white"/>
<path d="M16.7986 56.1644H3.02917V-1.52588e-05H16.7986V1.59822H10.7143H4.62994V54.5661H16.7986V56.1644Z" fill="white"/>
<path d="M45 28H17V27H45V28Z" fill="white"/>
<path d="M44 34H17V33H44V34Z" fill="white"/>
<path d="M43 40H17V39H43V40Z" fill="white"/>
<path d="M40 45H17V44H40V45Z" fill="white"/>
<path d="M34 51H17V50H34V51Z" fill="white"/>
</svg>
