<svg width="130" height="139" viewBox="0 0 130 139" fill="none" xmlns="http://www.w3.org/2000/svg">
<g filter="url(#filter0_d_1345_13303)">
<g filter="url(#filter1_d_1345_13303)">
<path fill-rule="evenodd" clip-rule="evenodd" d="M90 32H40V82H54.6077L65 91L75.3923 82H90V32Z" fill="#FC5E16"/>
</g>
<path d="M60.9306 73.0526H54.3945V43.3822H60.9306C69.2924 43.3822 76.0712 50.024 76.0712 58.2173C76.0712 66.4108 69.2924 73.0526 60.9306 73.0526Z" fill="#EF4B00"/>
<path d="M63.5418 42.842V70.7182C71.6084 70.6334 78.1442 64.7038 78.1442 56.7801C78.1442 48.8566 71.6084 42.9268 63.5418 42.842ZM63.916 71.5602H62.6855V42H63.916C72.2335 42 79.0005 48.6303 79.0005 56.7801C79.0005 64.9299 72.2335 71.5602 63.916 71.5602Z" fill="white"/>
<path d="M63.3807 71.5602H56.0156V42H63.3807V42.8412H60.1263H56.8718V70.719H63.3807V71.5602Z" fill="white"/>
<path d="M78.465 56.7368H63.4883V56.2105H78.465V56.7368Z" fill="white"/>
<path d="M77.9301 59.8948H63.4883V59.3685H77.9301V59.8948Z" fill="white"/>
<path d="M77.3953 63.0526H63.4883V62.5263H77.3953V63.0526Z" fill="white"/>
<path d="M75.7906 65.6842H63.4883V65.1579H75.7906V65.6842Z" fill="white"/>
<path d="M72.5813 68.8422H63.4883V68.3158H72.5813V68.8422Z" fill="white"/>
</g>
<defs>
<filter id="filter0_d_1345_13303" x="0" y="0" width="130" height="139" filterUnits="userSpaceOnUse" color-interpolation-filters="sRGB">
<feFlood flood-opacity="0" result="BackgroundImageFix"/>
<feColorMatrix in="SourceAlpha" type="matrix" values="0 0 0 0 0 0 0 0 0 0 0 0 0 0 0 0 0 0 127 0" result="hardAlpha"/>
<feOffset dy="8"/>
<feGaussianBlur stdDeviation="20"/>
<feColorMatrix type="matrix" values="0 0 0 0 0.0561903 0 0 0 0 0.0375347 0 0 0 0 0.0958333 0 0 0 0.1 0"/>
<feBlend mode="normal" in2="BackgroundImageFix" result="effect1_dropShadow_1345_13303"/>
<feBlend mode="normal" in="SourceGraphic" in2="effect1_dropShadow_1345_13303" result="shape"/>
</filter>
<filter id="filter1_d_1345_13303" x="30" y="30" width="70" height="79" filterUnits="userSpaceOnUse" color-interpolation-filters="sRGB">
<feFlood flood-opacity="0" result="BackgroundImageFix"/>
<feColorMatrix in="SourceAlpha" type="matrix" values="0 0 0 0 0 0 0 0 0 0 0 0 0 0 0 0 0 0 127 0" result="hardAlpha"/>
<feOffset dy="8"/>
<feGaussianBlur stdDeviation="5"/>
<feColorMatrix type="matrix" values="0 0 0 0 0.0561903 0 0 0 0 0.0375347 0 0 0 0 0.0958333 0 0 0 0.2 0"/>
<feBlend mode="normal" in2="BackgroundImageFix" result="effect1_dropShadow_1345_13303"/>
<feBlend mode="normal" in="SourceGraphic" in2="effect1_dropShadow_1345_13303" result="shape"/>
</filter>
</defs>
</svg>
